<svg xmlns="http://www.w3.org/2000/svg" xmlns:xlink="http://www.w3.org/1999/xlink" width="500"
    zoomAndPan="magnify" viewBox="0 0 375 149.999998" height="200"
    preserveAspectRatio="xMidYMid meet" version="1.0">
    <defs>
        <g />
    </defs>
    <path fill="#2ace7b"
        d="M 173.335938 63.355469 C 173.335938 63.355469 171.910156 64.554688 172.09375 67.351562 C 169.054688 64.390625 167.292969 63.425781 167.292969 63.425781 C 167.292969 63.425781 164.601562 61.464844 161.835938 64.121094 C 158.984375 66.855469 161.660156 70.097656 161.660156 70.097656 L 179.511719 87.777344 L 198.234375 69.578125 C 198.234375 69.578125 200.496094 67.148438 197.800781 64.03125 C 194.878906 60.664062 191.558594 63.859375 191.558594 63.859375 L 182.867188 72.078125 C 182.867188 72.078125 179.816406 74.855469 176.308594 71.574219 C 172.847656 68.335938 176.28125 65.097656 176.28125 65.097656 C 176.28125 65.097656 181.007812 60.996094 185.984375 56.402344 C 196.953125 48.523438 205.339844 58.226562 205.339844 58.226562 C 205.339844 58.226562 213.160156 66.066406 206.117188 75.644531 C 187.277344 94.667969 192.648438 89.222656 186.097656 95.664062 C 185.09375 97.078125 185.234375 98.265625 185.234375 98.265625 L 184.972656 118.023438 C 184.972656 118.023438 184.960938 122.558594 179.539062 122.617188 C 174.164062 122.671875 174.140625 118.195312 174.140625 118.195312 L 174.054688 98.003906 C 174.054688 98.003906 174.03125 96.285156 172.925781 95.664062 C 156.886719 79.445312 153.550781 76.136719 153.550781 76.136719 C 153.550781 76.136719 144.480469 65.414062 155.160156 56.839844 C 167.476562 46.953125 178.085938 59.277344 178.085938 59.277344 C 173.453125 63.222656 175.402344 61.5625 173.335938 63.355469 Z M 173.335938 63.355469 "
        fill-opacity="1" fill-rule="nonzero" />
    <g fill="#2ace7b" fill-opacity="1">
        <g transform="translate(-1.455007, 97.23251)">
            <g>
                <path
                    d="M 43.019531 -6.503906 L 40.277344 -13.710938 L 16.925781 -13.710938 L 14.183594 -6.347656 C 13.113281 -3.472656 12.199219 -1.535156 11.441406 -0.527344 C 10.683594 0.476562 9.441406 0.980469 7.71875 0.980469 C 6.253906 0.980469 4.960938 0.445312 3.839844 -0.625 C 2.714844 -1.699219 2.15625 -2.914062 2.15625 -4.269531 C 2.15625 -5.054688 2.285156 -5.863281 2.546875 -6.699219 C 2.808594 -7.535156 3.238281 -8.699219 3.839844 -10.1875 L 18.53125 -47.484375 C 18.949219 -48.554688 19.453125 -49.84375 20.039062 -51.34375 C 20.628906 -52.847656 21.253906 -54.09375 21.921875 -55.085938 C 22.585938 -56.078125 23.460938 -56.882812 24.546875 -57.496094 C 25.628906 -58.109375 26.96875 -58.414062 28.5625 -58.414062 C 30.179688 -58.414062 31.53125 -58.109375 32.617188 -57.496094 C 33.699219 -56.882812 34.574219 -56.089844 35.242188 -55.125 C 35.90625 -54.160156 36.46875 -53.121094 36.925781 -52.011719 C 37.382812 -50.898438 37.964844 -49.417969 38.667969 -47.5625 L 53.675781 -10.5 C 54.851562 -7.679688 55.4375 -5.628906 55.4375 -4.347656 C 55.4375 -3.015625 54.882812 -1.796875 53.773438 -0.6875 C 52.664062 0.425781 51.324219 0.980469 49.757812 0.980469 C 48.84375 0.980469 48.058594 0.816406 47.40625 0.488281 C 46.753906 0.164062 46.207031 -0.28125 45.761719 -0.84375 C 45.316406 -1.402344 44.839844 -2.265625 44.332031 -3.429688 C 43.820312 -4.589844 43.382812 -5.617188 43.019531 -6.503906 Z M 19.980469 -22.449219 L 37.140625 -22.449219 L 28.484375 -46.152344 Z M 19.980469 -22.449219 " />
            </g>
        </g>
    </g>
    <g fill="#2ace7b" fill-opacity="1">
        <g transform="translate(56.255745, 97.23251)">
            <g>
                <path
                    d="M 16.21875 -36.4375 L 16.21875 -5.523438 C 16.21875 -3.382812 15.710938 -1.761719 14.691406 -0.667969 C 13.671875 0.429688 12.378906 0.980469 10.8125 0.980469 C 9.246094 0.980469 7.972656 0.417969 6.992188 -0.707031 C 6.015625 -1.828125 5.523438 -3.433594 5.523438 -5.523438 L 5.523438 -36.125 C 5.523438 -38.238281 6.015625 -39.832031 6.992188 -40.902344 C 7.972656 -41.972656 9.246094 -42.507812 10.8125 -42.507812 C 12.378906 -42.507812 13.671875 -41.972656 14.691406 -40.902344 C 15.710938 -39.832031 16.21875 -38.34375 16.21875 -36.4375 Z M 10.929688 -47.484375 C 9.441406 -47.484375 8.167969 -47.941406 7.109375 -48.855469 C 6.054688 -49.769531 5.523438 -51.0625 5.523438 -52.734375 C 5.523438 -54.25 6.066406 -55.496094 7.148438 -56.476562 C 8.234375 -57.457031 9.496094 -57.945312 10.929688 -57.945312 C 12.316406 -57.945312 13.542969 -57.5 14.613281 -56.613281 C 15.683594 -55.726562 16.21875 -54.433594 16.21875 -52.734375 C 16.21875 -51.089844 15.699219 -49.804688 14.652344 -48.875 C 13.609375 -47.949219 12.367188 -47.484375 10.929688 -47.484375 Z M 10.929688 -47.484375 " />
            </g>
        </g>
    </g>
    <g fill="#2ace7b" fill-opacity="1">
        <g transform="translate(78.000121, 97.23251)">
            <g>
                <path
                    d="M 41.097656 -19.980469 L 41.097656 -5.757812 C 41.097656 -3.511719 40.589844 -1.828125 39.570312 -0.707031 C 38.550781 0.417969 37.207031 0.980469 35.535156 0.980469 C 33.914062 0.980469 32.601562 0.417969 31.597656 -0.707031 C 30.59375 -1.828125 30.089844 -3.511719 30.089844 -5.757812 L 30.089844 -22.800781 C 30.089844 -25.492188 30 -27.582031 29.816406 -29.070312 C 29.632812 -30.558594 29.136719 -31.78125 28.328125 -32.734375 C 27.515625 -33.6875 26.238281 -34.164062 24.488281 -34.164062 C 20.988281 -34.164062 18.683594 -32.960938 17.570312 -30.558594 C 16.460938 -28.15625 15.90625 -24.707031 15.90625 -20.214844 L 15.90625 -5.757812 C 15.90625 -3.539062 15.402344 -1.859375 14.398438 -0.726562 C 13.394531 0.410156 12.066406 0.980469 10.421875 0.980469 C 8.800781 0.980469 7.476562 0.410156 6.445312 -0.726562 C 5.414062 -1.859375 4.898438 -3.539062 4.898438 -5.757812 L 4.898438 -36.359375 C 4.898438 -38.371094 5.359375 -39.898438 6.289062 -40.941406 C 7.214844 -41.988281 8.4375 -42.507812 9.953125 -42.507812 C 11.414062 -42.507812 12.636719 -42.019531 13.613281 -41.039062 C 14.59375 -40.0625 15.082031 -38.707031 15.082031 -36.984375 L 15.082031 -35.964844 C 16.9375 -38.1875 18.921875 -39.820312 21.039062 -40.863281 C 23.15625 -41.910156 25.503906 -42.429688 28.089844 -42.429688 C 30.78125 -42.429688 33.09375 -41.894531 35.027344 -40.824219 C 36.957031 -39.753906 38.550781 -38.132812 39.804688 -35.964844 C 41.609375 -38.160156 43.539062 -39.785156 45.605469 -40.84375 C 47.667969 -41.902344 49.953125 -42.429688 52.460938 -42.429688 C 55.386719 -42.429688 57.90625 -41.855469 60.023438 -40.707031 C 62.136719 -39.558594 63.71875 -37.914062 64.761719 -35.769531 C 65.675781 -33.835938 66.132812 -30.792969 66.132812 -26.640625 L 66.132812 -5.757812 C 66.132812 -3.511719 65.625 -1.828125 64.605469 -0.707031 C 63.585938 0.417969 62.242188 0.980469 60.570312 0.980469 C 58.953125 0.980469 57.625 0.410156 56.59375 -0.726562 C 55.5625 -1.859375 55.046875 -3.539062 55.046875 -5.757812 L 55.046875 -23.742188 C 55.046875 -26.039062 54.949219 -27.882812 54.753906 -29.265625 C 54.558594 -30.652344 54.027344 -31.8125 53.164062 -32.753906 C 52.304688 -33.695312 51 -34.164062 49.25 -34.164062 C 47.835938 -34.164062 46.5 -33.746094 45.230469 -32.910156 C 43.964844 -32.074219 42.980469 -30.953125 42.273438 -29.539062 C 41.492188 -27.738281 41.097656 -24.550781 41.097656 -19.980469 Z M 41.097656 -19.980469 " />
            </g>
        </g>
    </g>
    <g fill="#2ace7b" fill-opacity="1">
        <g transform="translate(148.992573, 97.23251)">
            <g />
        </g>
    </g>
    <g fill="#2ace7b" fill-opacity="1">
        <g transform="translate(169.05225, 97.23251)">
            <g />
        </g>
    </g>
    <g fill="#2ace7b" fill-opacity="1">
        <g transform="translate(189.111927, 97.23251)">
            <g />
        </g>
    </g>
    <g fill="#2ace7b" fill-opacity="1">
        <g transform="translate(209.171604, 97.23251)">
            <g>
                <path
                    d="M 32.558594 -5.054688 C 29.972656 -3.042969 27.472656 -1.535156 25.054688 -0.527344 C 22.640625 0.476562 19.929688 0.980469 16.925781 0.980469 C 14.183594 0.980469 11.773438 0.4375 9.695312 -0.644531 C 7.621094 -1.730469 6.019531 -3.199219 4.898438 -5.054688 C 3.773438 -6.910156 3.210938 -8.917969 3.210938 -11.085938 C 3.210938 -14.011719 4.140625 -16.507812 5.996094 -18.570312 C 7.847656 -20.632812 10.394531 -22.019531 13.632812 -22.722656 C 14.3125 -22.878906 16 -23.234375 18.6875 -23.78125 C 21.378906 -24.332031 23.683594 -24.832031 25.601562 -25.289062 C 27.523438 -25.746094 29.605469 -26.300781 31.851562 -26.957031 C 31.722656 -29.777344 31.152344 -31.847656 30.148438 -33.164062 C 29.144531 -34.484375 27.058594 -35.144531 23.898438 -35.144531 C 21.183594 -35.144531 19.140625 -34.765625 17.769531 -34.007812 C 16.394531 -33.25 15.222656 -32.113281 14.242188 -30.597656 C 13.261719 -29.082031 12.570312 -28.085938 12.164062 -27.601562 C 11.761719 -27.117188 10.890625 -26.875 9.558594 -26.875 C 8.359375 -26.875 7.320312 -27.261719 6.445312 -28.03125 C 5.570312 -28.804688 5.132812 -29.789062 5.132812 -30.992188 C 5.132812 -32.871094 5.796875 -34.699219 7.128906 -36.476562 C 8.460938 -38.25 10.539062 -39.714844 13.359375 -40.863281 C 16.179688 -42.011719 19.695312 -42.585938 23.898438 -42.585938 C 28.601562 -42.585938 32.296875 -42.03125 34.988281 -40.921875 C 37.675781 -39.8125 39.578125 -38.054688 40.6875 -35.652344 C 41.796875 -33.25 42.351562 -30.0625 42.351562 -26.09375 C 42.351562 -23.585938 42.347656 -21.457031 42.332031 -19.707031 C 42.320312 -17.957031 42.300781 -16.011719 42.273438 -13.871094 C 42.273438 -11.859375 42.605469 -9.761719 43.273438 -7.582031 C 43.9375 -5.398438 44.273438 -3.996094 44.273438 -3.371094 C 44.273438 -2.273438 43.757812 -1.273438 42.726562 -0.371094 C 41.691406 0.527344 40.523438 0.980469 39.21875 0.980469 C 38.121094 0.980469 37.039062 0.464844 35.964844 -0.566406 C 34.894531 -1.601562 33.757812 -3.09375 32.558594 -5.054688 Z M 31.851562 -20.53125 C 30.285156 -19.957031 28.007812 -19.347656 25.015625 -18.707031 C 22.023438 -18.066406 19.957031 -17.597656 18.804688 -17.296875 C 17.65625 -16.996094 16.558594 -16.410156 15.515625 -15.535156 C 14.46875 -14.660156 13.949219 -13.4375 13.949219 -11.871094 C 13.949219 -10.25 14.5625 -8.875 15.789062 -7.738281 C 17.015625 -6.601562 18.625 -6.035156 20.609375 -6.035156 C 22.722656 -6.035156 24.675781 -6.496094 26.464844 -7.425781 C 28.253906 -8.351562 29.566406 -9.546875 30.402344 -11.007812 C 31.371094 -12.628906 31.851562 -15.292969 31.851562 -19 Z M 31.851562 -20.53125 " />
            </g>
        </g>
    </g>
    <g fill="#2ace7b" fill-opacity="1">
        <g transform="translate(256.852517, 97.23251)">
            <g>
                <path
                    d="M 15.398438 -52.304688 L 15.398438 -35.964844 C 17.410156 -38.054688 19.457031 -39.65625 21.546875 -40.765625 C 23.636719 -41.875 26.222656 -42.429688 29.304688 -42.429688 C 32.859375 -42.429688 35.972656 -41.589844 38.648438 -39.902344 C 41.328125 -38.21875 43.402344 -35.777344 44.878906 -32.578125 C 46.355469 -29.378906 47.09375 -25.582031 47.09375 -21.195312 C 47.09375 -17.957031 46.683594 -14.984375 45.859375 -12.28125 C 45.035156 -9.578125 43.839844 -7.234375 42.273438 -5.25 C 40.707031 -3.265625 38.808594 -1.730469 36.574219 -0.644531 C 34.339844 0.4375 31.878906 0.980469 29.1875 0.980469 C 27.542969 0.980469 25.996094 0.785156 24.546875 0.390625 C 23.097656 0 21.863281 -0.515625 20.84375 -1.15625 C 19.824219 -1.796875 18.957031 -2.457031 18.238281 -3.132812 C 17.519531 -3.8125 16.574219 -4.832031 15.398438 -6.191406 L 15.398438 -5.132812 C 15.398438 -3.121094 14.914062 -1.601562 13.949219 -0.566406 C 12.980469 0.464844 11.753906 0.980469 10.265625 0.980469 C 8.75 0.980469 7.542969 0.464844 6.640625 -0.566406 C 5.738281 -1.601562 5.289062 -3.121094 5.289062 -5.132812 L 5.289062 -51.832031 C 5.289062 -54 5.726562 -55.640625 6.601562 -56.75 C 7.476562 -57.859375 8.699219 -58.414062 10.265625 -58.414062 C 11.910156 -58.414062 13.175781 -57.886719 14.066406 -56.828125 C 14.953125 -55.769531 15.398438 -54.261719 15.398438 -52.304688 Z M 15.90625 -20.53125 C 15.90625 -16.273438 16.878906 -13 18.824219 -10.714844 C 20.769531 -8.429688 23.324219 -7.289062 26.484375 -7.289062 C 29.175781 -7.289062 31.492188 -8.457031 33.4375 -10.792969 C 35.386719 -13.132812 36.359375 -16.480469 36.359375 -20.84375 C 36.359375 -23.664062 35.953125 -26.09375 35.144531 -28.128906 C 34.332031 -30.167969 33.183594 -31.742188 31.695312 -32.851562 C 30.207031 -33.960938 28.46875 -34.515625 26.484375 -34.515625 C 24.449219 -34.515625 22.632812 -33.960938 21.039062 -32.851562 C 19.445312 -31.742188 18.191406 -30.136719 17.277344 -28.03125 C 16.363281 -25.929688 15.90625 -23.429688 15.90625 -20.53125 Z M 15.90625 -20.53125 " />
            </g>
        </g>
    </g>
    <g fill="#2ace7b" fill-opacity="1">
        <g transform="translate(307.001711, 97.23251)">
            <g>
                <path
                    d="M 5.523438 -5.523438 L 5.523438 -51.914062 C 5.523438 -54.054688 6 -55.671875 6.953125 -56.769531 C 7.90625 -57.867188 9.195312 -58.414062 10.8125 -58.414062 C 12.433594 -58.414062 13.738281 -57.875 14.730469 -56.789062 C 15.722656 -55.707031 16.21875 -54.082031 16.21875 -51.914062 L 16.21875 -5.523438 C 16.21875 -3.355469 15.71875 -1.730469 14.710938 -0.644531 C 13.707031 0.4375 12.40625 0.980469 10.8125 0.980469 C 9.246094 0.980469 7.972656 0.417969 6.992188 -0.707031 C 6.015625 -1.828125 5.523438 -3.433594 5.523438 -5.523438 Z M 5.523438 -5.523438 " />
            </g>
        </g>
    </g>
    <g fill="#2ace7b" fill-opacity="1">
        <g transform="translate(328.746087, 97.23251)">
            <g>
                <path
                    d="M 35.378906 -18.140625 L 14.457031 -18.140625 C 14.484375 -15.710938 14.972656 -13.570312 15.925781 -11.714844 C 16.878906 -9.859375 18.144531 -8.460938 19.726562 -7.523438 C 21.308594 -6.582031 23.050781 -6.113281 24.957031 -6.113281 C 26.238281 -6.113281 27.40625 -6.261719 28.464844 -6.5625 C 29.519531 -6.863281 30.546875 -7.332031 31.539062 -7.972656 C 32.53125 -8.613281 33.445312 -9.296875 34.28125 -10.03125 C 35.117188 -10.761719 36.203125 -11.753906 37.535156 -13.007812 C 38.082031 -13.476562 38.867188 -13.710938 39.882812 -13.710938 C 40.980469 -13.710938 41.871094 -13.414062 42.546875 -12.8125 C 43.226562 -12.210938 43.566406 -11.363281 43.566406 -10.265625 C 43.566406 -9.296875 43.1875 -8.167969 42.429688 -6.875 C 41.671875 -5.582031 40.53125 -4.34375 39.003906 -3.152344 C 37.476562 -1.964844 35.554688 -0.980469 33.242188 -0.195312 C 30.933594 0.585938 28.273438 0.980469 25.269531 0.980469 C 18.402344 0.980469 13.058594 -0.980469 9.246094 -4.898438 C 5.433594 -8.816406 3.527344 -14.128906 3.527344 -20.84375 C 3.527344 -24.003906 3.996094 -26.9375 4.9375 -29.640625 C 5.875 -32.34375 7.25 -34.660156 9.050781 -36.59375 C 10.851562 -38.527344 13.074219 -40.007812 15.710938 -41.039062 C 18.347656 -42.070312 21.273438 -42.585938 24.488281 -42.585938 C 28.664062 -42.585938 32.25 -41.707031 35.242188 -39.941406 C 38.230469 -38.179688 40.472656 -35.902344 41.960938 -33.105469 C 43.449219 -30.3125 44.195312 -27.464844 44.195312 -24.566406 C 44.195312 -21.875 43.421875 -20.132812 41.882812 -19.335938 C 40.339844 -18.539062 38.171875 -18.140625 35.378906 -18.140625 Z M 14.457031 -24.210938 L 33.851562 -24.210938 C 33.589844 -27.871094 32.601562 -30.605469 30.894531 -32.421875 C 29.183594 -34.234375 26.929688 -35.144531 24.132812 -35.144531 C 21.46875 -35.144531 19.28125 -34.222656 17.570312 -32.382812 C 15.859375 -30.539062 14.824219 -27.816406 14.457031 -24.210938 Z M 14.457031 -24.210938 " />
            </g>
        </g>
    </g>
</svg>