<?xml version="1.0" encoding="UTF-8" standalone="no"?>
<!-- Created with Inkscape (http://www.inkscape.org/) -->

<svg
   width="210mm"
   height="297mm"
   viewBox="0 0 210 297"
   version="1.1"
   id="svg1"
   inkscape:version="1.3.2 (091e20e, 2023-11-25, custom)"
   sodipodi:docname="Aimyable Logo 5.svg"
   xmlns:inkscape="http://www.inkscape.org/namespaces/inkscape"
   xmlns:sodipodi="http://sodipodi.sourceforge.net/DTD/sodipodi-0.dtd"
   xmlns="http://www.w3.org/2000/svg"
   xmlns:svg="http://www.w3.org/2000/svg">
  <sodipodi:namedview
     id="namedview1"
     pagecolor="#ffffff"
     bordercolor="#000000"
     borderopacity="0.25"
     inkscape:showpageshadow="2"
     inkscape:pageopacity="0.0"
     inkscape:pagecheckerboard="0"
     inkscape:deskcolor="#d1d1d1"
     inkscape:document-units="mm"
     inkscape:zoom="0.76167929"
     inkscape:cx="396.49233"
     inkscape:cy="561.25984"
     inkscape:window-width="1920"
     inkscape:window-height="1111"
     inkscape:window-x="-9"
     inkscape:window-y="-9"
     inkscape:window-maximized="1"
     inkscape:current-layer="layer1" />
  <defs
     id="defs1">
    <rect
       x="191.68172"
       y="706.33405"
       width="317.71902"
       height="156.23373"
       id="rect24-8-0" />
    <rect
       x="428.00165"
       y="712.8985"
       width="227.12971"
       height="94.527969"
       id="rect25-1-6" />
  </defs>
  <g
     inkscape:label="Layer 1"
     inkscape:groupmode="layer"
     id="layer1">
    <g
       id="g26"
       inkscape:export-filename="Aimyable Logo2 Yellow.png"
       inkscape:export-xdpi="96"
       inkscape:export-ydpi="96"
       style="fill:#ffcc00"
       transform="translate(-2.3387077,-36.40979)">
      <text
         xml:space="preserve"
         transform="matrix(0.37642948,0,0,0.37642948,-21.779569,-97.914872)"
         id="text24-5-0"
         style="font-style:normal;font-variant:normal;font-weight:normal;font-stretch:normal;font-size:64px;font-family:'Arial Rounded MT Bold';-inkscape-font-specification:'Arial Rounded MT Bold, Normal';font-variant-ligatures:normal;font-variant-caps:normal;font-variant-numeric:normal;font-variant-east-asian:normal;white-space:pre;shape-inside:url(#rect24-8-0);fill:#ffcc00"><tspan
         x="191.68164"
         y="764.00811"
         id="tspan3">Aim</tspan></text>
      <text
         xml:space="preserve"
         transform="matrix(0.37642948,0,0,0.37642948,-46.423218,-100.35098)"
         id="text25-1-2"
         style="font-style:normal;font-variant:normal;font-weight:normal;font-stretch:normal;font-size:64px;font-family:'Arial Rounded MT Bold';-inkscape-font-specification:'Arial Rounded MT Bold, Normal';font-variant-ligatures:normal;font-variant-caps:normal;font-variant-numeric:normal;font-variant-east-asian:normal;white-space:pre;shape-inside:url(#rect25-1-6);fill:#ffcc00"><tspan
         x="428.00195"
         y="770.57257"
         id="tspan4">able</tspan></text>
      <path
         style="fill:#ffcc00;stroke-width:0.298722"
         d="
         m 103.131,179.9263 
         c 0,0 -0.43126,0.36186 -0.37571,1.20753 -0.91872,-0.89476 -1.45071,-1.18667 -1.45071,-1.18667 0,0 -0.81404,-0.59333 -1.650292,0.20957 -0.861853,0.82748 -0.05241,1.80748 -0.05241,1.80748 
         l 5.396232,5.34383 5.65819,-5.50101 
         c 0,0 0.68472,-0.73501 -0.13098,-1.6765 -0.88253,-1.01862 -1.88607,-0.0524 -1.88607,-0.0524 
         l -2.62739,2.48437 
         c 0,0 -0.92166,0.83983 -1.98297,-0.15298 -1.04531,-0.97784 -0.008,-1.95677 -0.008,-1.95677 0,0 1.42938,-1.24034 2.93338,-2.62901 3.31517,-2.38086 5.84989,0.55171 5.84989,0.55171 0,0 2.36473,2.37014 0.23577,5.26524 -5.69514,5.7502 -4.07126,4.10435 -6.05111,6.05112 -0.3034,0.42756 -0.26194,0.78585 -0.26194,0.78585 
         l -0.0786,5.97252 
         c 0,0 -0.004,1.37066 -1.64277,1.38835 -1.62396,0.0175 -1.63164,-1.33596 -1.63164,-1.33596 
         l -0.0262,-6.1035 
         c 0,0 -0.007,-0.51957 -0.34055,-0.70726 -4.848911,-4.9026 -5.85658,-5.90276 -5.85658,-5.90276 0,0 -2.742468,-3.24076 0.486552,-5.83274 3.722948,-2.98846 6.929198,0.73622 6.929198,0.73622 -1.39995,1.19298 -0.81103,0.69157 -1.43529,1.23377 
         z"
         id="path25"
         sodipodi:nodetypes="cccscccsccscccccccsccccscc" />
    </g>
  </g>
</svg>
