<svg xmlns="http://www.w3.org/2000/svg" xmlns:xlink="http://www.w3.org/1999/xlink" width="1080"
    zoomAndPan="magnify" viewBox="0 0 810 809.999993" height="1080"
    preserveAspectRatio="xMidYMid meet" version="1.0">
    <path fill="#2ace7b"
        d="M 354.320312 165.207031 C 354.320312 165.207031 340.3125 176.960938 342.117188 204.429688 C 312.277344 175.367188 294.996094 165.886719 294.996094 165.886719 C 294.996094 165.886719 268.554688 146.613281 241.394531 172.691406 C 213.398438 199.570312 239.691406 231.402344 239.691406 231.402344 L 414.96875 404.976562 L 598.753906 226.296875 C 598.753906 226.296875 620.996094 202.421875 594.5 171.84375 C 565.832031 138.757812 533.238281 170.140625 533.238281 170.140625 L 447.898438 250.835938 C 447.898438 250.835938 417.960938 278.113281 383.488281 245.867188 C 349.535156 214.105469 383.226562 182.308594 383.226562 182.308594 C 383.226562 182.308594 429.65625 142.019531 478.507812 96.914062 C 586.1875 19.582031 668.519531 114.835938 668.519531 114.835938 C 668.519531 114.835938 745.328125 191.820312 676.175781 285.855469 C 491.191406 472.632812 543.9375 419.171875 479.628906 482.40625 C 469.773438 496.292969 471.121094 507.929688 471.121094 507.929688 L 468.566406 701.925781 C 468.566406 701.925781 468.4375 746.449219 415.207031 747.023438 C 362.460938 747.589844 362.210938 703.628906 362.210938 703.628906 L 361.359375 505.378906 C 361.359375 505.378906 361.132812 488.503906 350.296875 482.40625 C 192.800781 323.164062 160.070312 290.675781 160.070312 290.675781 C 160.070312 290.675781 70.988281 185.410156 175.871094 101.222656 C 296.800781 4.152344 400.941406 125.132812 400.941406 125.132812 C 355.46875 163.882812 374.597656 147.597656 354.320312 165.207031 Z M 354.320312 165.207031 "
        fill-opacity="1" fill-rule="nonzero" />
</svg>